<?xml version="1.0" standalone="no"?>
<!DOCTYPE svg PUBLIC "-//W3C//DTD SVG 20010904//EN"
 "http://www.w3.org/TR/2001/REC-SVG-20010904/DTD/svg10.dtd">
<svg version="1.0" xmlns="http://www.w3.org/2000/svg"
 width="700.000000pt" height="700.000000pt" viewBox="0 0 700.000000 700.000000"
 preserveAspectRatio="xMidYMid meet">
<metadata>
Created by potrace 1.11, written by Peter Selinger 2001-2013
</metadata>
<g transform="translate(0.000000,700.000000) scale(0.100000,-0.100000)"
fill="#000000" stroke="none">
<path d="M3201 5585 l-1285 -1284 20 -22 c10 -12 122 -125 248 -250 179 -179
235 -229 255 -229 14 -1 313 -2 663 -3 595 -2 638 -3 655 -20 17 -16 18 -59
18 -677 l0 -659 50 -51 c28 -29 173 -175 324 -325 l273 -274 647 646 c355 356
935 936 1288 1289 l643 642 -1251 1251 c-687 688 -1253 1251 -1257 1251 -4 0
-585 -578 -1291 -1285z m1376 351 c181 -35 343 -197 381 -379 12 -58 8 -172
-8 -223 -51 -170 -193 -307 -356 -344 -304 -70 -596 160 -595 470 1 135 49
251 145 345 117 114 275 162 433 131z m87 -1106 c187 -72 311 -240 317 -432 8
-239 -137 -433 -367 -492 -306 -79 -608 164 -598 481 2 68 21 160 35 169 5 3
9 12 9 20 0 38 96 151 174 204 117 79 299 101 430 50z m-84 -1164 c199 -68
326 -235 335 -443 9 -202 -124 -403 -309 -470 -65 -23 -77 -25 -157 -29 -157
-6 -284 53 -401 186 -58 65 -100 190 -101 296 -1 173 105 348 257 426 117 61
260 73 376 34z"/>
<path d="M0 1897 l0 -1772 1823 0 1822 0 1 1773 1 1772 -1824 0 -1823 0 0
-1773z m1198 1253 c136 -28 265 -128 328 -257 136 -272 -5 -593 -301 -685 -16
-5 -64 -11 -106 -13 -137 -7 -265 42 -363 140 -190 188 -194 483 -9 676 115
121 284 173 451 139z m1481 -39 c290 -80 437 -407 306 -682 -122 -258 -465
-351 -698 -191 -73 50 -73 51 -122 115 -209 276 -66 674 275 760 63 16 175 15
239 -2z m-1459 -1491 c163 -44 295 -175 344 -342 13 -46 15 -195 2 -248 -3
-14 -21 -56 -40 -95 -150 -301 -546 -359 -784 -114 -51 53 -109 165 -122 239
-58 303 184 586 490 575 36 -1 85 -8 110 -15z m1454 -35 c158 -42 282 -158
337 -316 30 -86 30 -219 0 -302 -69 -198 -242 -326 -446 -332 -273 -7 -496
208 -496 480 0 268 203 478 468 484 44 1 104 -5 137 -14z"/>
</g>
</svg>
